<svg xmlns="http://www.w3.org/2000/svg" viewBox="468 658 1112 730" fill="none" role="img" aria-label="Mariposa Studio">
  <!-- Mariposa = "butterfly". Vector mark; single color via currentColor
       so it works on dark AND light. -->
  <path d="M 828.338 1050.5 C 813.763 1053.84 799.032 1058.64 784.308 1061.77 C 754.805 1067.97 724.138 1065.51 696.001 1054.69 C 653.514 1037.55 623.216 999.278 616.295 953.992 C 613.473 936.582 614.442 918.885 610.235 901.294 C 605.192 880.203 596.838 862.288 585.345 844.041 C 575.385 828.228 566.045 818.847 551.837 806.471 C 534.82 791.648 511.779 782.119 502.82 760.194 C 498.494 749.534 498.614 737.586 503.153 727.015 C 509.037 712.937 523.345 702.839 537.253 697.663 C 585.732 679.624 656.879 695.918 702.993 716.356 C 782.425 752.165 856.515 807.04 911.841 874.715 C 942.304 911.976 972.057 962.474 993.848 1005.46 C 1000.48 1018.54 1008.15 1034.82 1013.42 1048.43 C 1019.84 1019.39 1010.05 1020.15 1001.88 998.336 C 996.288 983.406 1025.15 967.993 1040.6 981.303 C 1059.63 997.691 1038.59 1008.24 1033.42 1025.26 C 1031.68 1031.41 1033.62 1044.36 1034.35 1050.82 C 1041.92 1034.94 1047.89 1018.67 1055.99 1002.52 C 1092.14 928.949 1141.79 862.818 1202.34 807.562 C 1272.87 744.223 1378.46 686.616 1475.22 690.313 C 1508.14 691.57 1551.41 707.174 1549.36 747.415 C 1547.82 777.763 1518.96 787.506 1499.12 805.007 C 1453.85 843.217 1437.4 886.592 1434.2 943.862 C 1429.63 1025.37 1345.33 1080.82 1267.69 1061.83 C 1252.17 1058.03 1228.3 1051.32 1212.52 1049.62 C 1212.96 1050.5 1213.42 1051.38 1213.89 1052.25 C 1262 1063.62 1311.33 1097.78 1337.36 1140.11 C 1357.4 1172.33 1363.62 1211.28 1354.62 1248.14 C 1336.37 1321.38 1264.38 1371.87 1189.5 1353.08 C 1148.78 1342.86 1115.67 1309.31 1095.94 1274.14 C 1072.73 1232.78 1068.86 1182.62 1067.64 1136.17 C 1067.04 1113.28 1057.91 1089.95 1046.2 1070.25 C 1050.82 1085.67 1055.23 1100.91 1055.95 1117.12 C 1057.29 1147.15 1041.39 1272.53 1027.89 1298.06 C 1026.56 1300.58 1025.01 1302.92 1023.28 1305.19 C 1002.14 1265.24 1003.48 1189.93 993.509 1144.59 C 989.773 1127.61 993.825 1102.08 997.62 1085.19 C 998.324 1083.3 998.741 1081.72 999.284 1079.78 C 1000.3 1078.5 1007.37 1065.54 1005.04 1065.5 L 1005.07 1066.18 L 1004.53 1066.07 C 1003.01 1068.64 999.169 1074.92 998.619 1077.43 C 997.44 1079.64 996.247 1081.84 995.041 1084.04 C 978.252 1119.18 982.114 1138.46 979.886 1175 C 977.362 1207.74 970.193 1238.76 955.92 1268.36 C 921.373 1340.02 845.61 1380.47 770.155 1343.03 C 735.351 1325.68 709.022 1295.01 697.134 1257.99 C 685.761 1223.05 689.491 1181.78 706.575 1149.38 C 732.936 1099.37 778.159 1069.47 830.674 1052.55 C 831.98 1052.38 832.274 1052.41 833.407 1052.03 L 833.976 1049.14 C 832.105 1049.53 830.119 1049.78 828.338 1050.5 z" fill="currentColor"/>
  <path d="M 1213.89 1052.25 C 1201.32 1049.99 1188.27 1047.64 1175.8 1045.24 C 1175.84 1045.14 1175.88 1045.05 1175.92 1044.95 C 1180.02 1043.81 1208.26 1047.87 1212.52 1049.62 C 1212.96 1050.5 1213.42 1051.38 1213.89 1052.25 z" fill="currentColor"/>
  <path d="M 833.976 1049.14 C 836.669 1048.58 862.451 1043.81 863.214 1046.11 C 862.926 1046.44 862.729 1046.45 862.282 1046.61 L 861.745 1045.75 L 861.109 1046.76 C 856.03 1046.68 839.156 1050.81 833.407 1052.03 L 833.976 1049.14 z" fill="currentColor"/>
  <path d="M 1041.44 925.684 C 1065.05 868.757 1106.45 797.992 1157.5 761.499 C 1170.13 756.498 1175.17 770.111 1167.36 778.147 C 1154.69 791.184 1140.05 802.528 1126.47 814.765 C 1089.23 848.331 1066.27 883.075 1043.25 927.188 L 1041.44 925.684 z" fill="currentColor"/>
  <path d="M 1003.16 922.541 C 975.793 868.837 941.795 829.415 895.404 790.928 C 888.318 785.05 868.51 768.36 883.783 760.465 C 893.04 760.321 904.319 770.7 910.628 777.088 C 951.286 818.261 984.138 868.005 1005.46 921.585 L 1003.16 922.541 z" fill="currentColor"/>
  <path d="M 998.619 1077.43 C 999.169 1074.92 1003.01 1068.64 1004.53 1066.07 L 1005.07 1066.18 L 1005.04 1065.5 C 1007.37 1065.54 1000.3 1078.5 999.284 1079.78 L 998.619 1077.43 z" fill="currentColor"/>
  <path d="M 1003.16 922.541 L 1005.46 921.585 C 1006.51 924.15 1007.46 926.752 1008.61 929.274 L 1007.27 931.564 C 1005.94 928.263 1004.72 925.741 1003.16 922.541 z" fill="currentColor"/>
  <path d="M 998.619 1077.43 L 999.284 1079.78 C 998.741 1081.72 998.324 1083.3 997.62 1085.19 L 995.041 1084.04 C 996.247 1081.84 997.44 1079.64 998.619 1077.43 z" fill="currentColor"/>
  <path d="M 1043.25 927.188 C 1042.81 928.211 1041.22 933.163 1040.2 933.252 C 1038.84 932.354 1041.03 926.856 1041.44 925.684 L 1043.25 927.188 z" fill="currentColor"/>
  <path d="M 833.976 1049.14 L 833.407 1052.03 C 832.274 1052.41 831.98 1052.38 830.674 1052.55 C 830.252 1050.83 829.971 1051.05 828.338 1050.5 C 830.119 1049.78 832.105 1049.53 833.976 1049.14 z" fill="currentColor"/>
  <path d="M 1008.61 929.274 C 1008.93 930.15 1009.25 931.027 1009.57 931.903 C 1011.02 937.452 1009.12 936.319 1007.27 931.564 L 1008.61 929.274 z" fill="currentColor"/>
</svg>
